<svg width="217" height="311" viewBox="0 0 217 311" fill="none" xmlns="http://www.w3.org/2000/svg">
<path d="M58.458 57.9402C55.2091 64.2829 54.0418 71.4882 55.1219 78.5323C55.582 81.4083 61.5641 79.9128 62.7912 79.376C72.7614 75.1578 79.7021 64.0373 75.4456 53.3769C73.8734 49.5422 62.9062 52.7634 64.3251 56.368C66.8176 62.6185 65.2071 71.7066 58.3814 74.6977L66.0507 75.5413C65.1018 69.6495 65.9992 63.6085 68.6199 58.247C70.9974 53.4537 59.9152 54.604 58.2663 57.9402H58.458Z" fill="white"/>
<path d="M128.746 62.57C128.324 67.9385 127.863 73.3071 127.442 78.6756C127.097 82.9321 132.925 83.0855 135.61 81.7817C138.079 80.6645 140.3 79.0646 142.142 77.0762C143.984 75.0878 145.41 72.7511 146.336 70.2035C147.261 67.6559 147.667 64.9488 147.531 62.2417C147.395 59.5346 146.718 56.8822 145.541 54.4405C143.241 49.7238 132.734 53.9804 135.418 59.4256C136.668 62.1287 136.861 65.2017 135.96 68.0402C135.059 70.8787 133.128 73.2773 130.548 74.7643L138.716 77.9086C139.176 72.5401 139.598 67.1716 140.019 61.8414C140.518 55.8593 129.167 57.2015 128.746 62.5317V62.57Z" fill="white"/>
<path d="M80.5071 117.911C82.8846 122.628 77.5927 126.884 79.4334 131.754C80.9672 135.895 85.4922 135.397 89.0584 134.438C94.6187 132.943 96.7277 129.3 99.1052 124.507C102.109 118.768 104.76 112.852 107.043 106.79C107.618 105.295 104.589 105.487 103.937 105.525C96.9195 106.023 88.2531 109.359 88.023 117.566C88.023 119.291 99.0669 117.834 99.1436 114.613C99.0975 113.498 99.335 112.39 99.8338 111.392C101.47 109.858 101.24 109.398 99.1436 110.011L96.0758 108.746C94.5036 112.887 92.8163 116.952 90.899 120.94C89.4418 123.97 87.3328 130.757 84.3417 132.444L89.6336 130.565C91.9727 130.22 90.4772 128.801 90.2471 127.613C90.0864 125.91 90.4052 124.197 91.1674 122.666C91.7909 121.495 92.1515 120.202 92.2244 118.878C92.2972 117.553 92.0806 116.229 91.5893 114.996C90.2088 112.274 79.5867 116.185 80.5071 117.949V117.911Z" fill="white"/>
<path d="M3.62107 115.23C1.6469 117.587 0.324871 120.421 -0.213367 123.449C-0.751605 126.476 -0.487335 129.592 0.553262 132.486C1.58862 135.323 6.45865 134.441 8.2226 133.559C13.6179 131.337 18.1423 127.418 21.1107 122.395C24.079 117.371 25.3297 111.517 24.6734 105.719C24.2132 102.268 17.004 104.186 15.5852 105.336L6.15196 112.43C0.131533 116.955 9.44972 118.987 13.1694 116.265L22.6026 109.171L13.5528 108.787C14.1449 112.693 13.5159 116.687 11.7518 120.222C9.9878 123.757 7.17484 126.66 3.69772 128.536L11.3671 129.61C10.4751 127.309 10.2252 124.809 10.644 122.378C11.0627 119.946 12.1344 117.674 13.7445 115.805C15.4701 113.657 12.249 112.277 10.6385 112.162C9.25579 112.068 7.87069 112.304 6.59724 112.851C5.32379 113.397 4.19847 114.239 3.31423 115.306L3.62107 115.23Z" fill="white"/>
<path d="M29.812 167.189C25.9121 175.554 22.7803 184.256 20.4554 193.188C19.305 197.521 29.1985 194.108 30.3872 193.188C35.6791 189.252 39.8358 183.986 42.4354 177.925C45.035 171.864 45.985 165.223 45.1891 158.676C44.8056 155.569 37.5198 157.87 36.216 158.676L30.8857 162.127C24.6352 166.192 34.337 167.227 37.6732 165.041L43.0417 161.59H34.0686C34.8181 167.264 34.0569 173.035 31.862 178.32C29.667 183.606 26.1159 188.218 21.5675 191.692H31.4993C33.8372 182.747 36.9818 174.032 40.8943 165.655C42.3131 162.664 31.4226 163.737 29.812 167.189V167.189Z" fill="white"/>
<path d="M121.769 166.566C119.736 173.951 119.124 181.654 119.966 189.267C120.427 193.562 129.4 189.536 130.703 187.925C134.082 183.801 136.564 179.018 137.99 173.881C139.416 168.745 139.755 163.367 138.986 158.091C138.449 154.257 127.291 156.826 127.866 161.044C128.53 165.77 128.191 170.583 126.869 175.168C125.548 179.754 123.274 184.009 120.196 187.657L130.933 186.315C130.187 179.221 130.798 172.05 132.736 165.186C133.848 161.351 122.689 162.731 121.615 166.566H121.769Z" fill="white"/>
<path d="M149.914 113.233C148.413 116.347 147.557 119.732 147.399 123.186C147.241 126.639 147.783 130.089 148.994 133.327C149.914 135.819 157.43 132.866 158.811 131.984C164.448 128.15 171.963 122.705 171.196 114.997C170.43 107.289 163.949 105.257 157.545 106.331C156.318 106.522 151.026 107.634 151.026 109.36C151.026 111.086 154.247 110.625 155.474 110.395C156.05 110.395 158.58 113.54 158.926 114.23C159.959 116.112 160.349 118.28 160.038 120.404C159.079 125.542 154.362 129.07 150.298 131.908L160.114 130.566C158.91 127.49 158.356 124.199 158.488 120.899C158.62 117.599 159.435 114.362 160.881 111.392C161.648 109.743 151.256 110.51 149.914 113.348V113.233Z" fill="white"/>
<path d="M105.93 7.09235C104.26 14.2241 103.691 21.5695 104.243 28.8734C104.434 31.7494 113.829 27.8379 114.826 26.9943C117.694 24.6284 119.969 21.6238 121.467 18.2211C122.965 14.8184 123.646 11.1122 123.454 7.39919C123.224 3.79461 122.688 1.22537 118.776 0.80356C114.679 0.517625 110.61 1.6704 107.272 4.06305C105.47 5.40519 105.93 6.21048 107.924 6.59395C110.704 6.76719 113.465 6.02646 115.785 4.48481L111.759 6.51718L112.065 7.78268C112.065 8.81804 112.372 9.96835 112.411 11.0421C112.462 13.2731 112.165 15.4986 111.529 17.6377C110.328 21.6049 107.98 25.1277 104.78 27.7613L115.402 25.8823C114.856 18.9421 115.373 11.9591 116.935 5.17502C117.511 2.68249 106.62 4.2547 105.968 7.09235H105.93Z" fill="white"/>
<path d="M13.1704 38.1511C10.1026 41.4873 5.76953 46.4723 8.91395 51.189C12.0584 55.9056 17.4653 54.2951 21.4917 52.7996C32.3438 48.7732 31.7685 33.6262 26.2466 25.42C24.5594 23.0041 16.3915 25.8036 15.2027 27.9126L10.4478 36.1955C9.45078 37.9211 14.2825 37.2691 14.896 37.1924C16.8134 36.8473 20.3028 36.0804 21.4149 34.2014C22.9871 31.4405 24.5594 28.6795 26.17 25.9185L15.1261 28.411C16.994 30.9895 18.2337 33.9687 18.7464 37.1111C19.259 40.2535 19.0304 43.4722 18.0787 46.5107C17.2351 49.0415 15.1644 49.9235 19.0758 49.6551C22.9872 49.3867 20.0345 49.2333 19.0758 46.5107C17.9637 42.9444 20.9164 39.6467 22.9105 37.2308C24.5594 35.4669 21.4532 35.4285 20.3028 35.5052C17.5998 35.5463 14.9856 36.4762 12.8637 38.1511H13.1704Z" fill="white"/>
<path d="M193.629 43.7545C190.792 48.3561 187.417 55.2585 188.913 60.7805C190.408 66.3024 197.234 65.037 201.145 63.1963C211.806 58.2112 212.649 43.3328 206.284 34.8582C204.366 32.3656 193.668 36.0085 195.892 38.9612C198.274 42.0796 199.494 45.9307 199.343 49.8517C199.28 51.9338 198.838 53.9869 198.039 55.9105C197.623 56.9242 197.096 57.8888 196.467 58.7865C195.291 59.7068 195.291 60.0519 196.467 59.8218H201.567C196.659 58.403 202.564 45.8253 203.945 43.6012C206.284 39.7666 195.355 41.262 193.744 43.9079L193.629 43.7545Z" fill="white"/>
<path d="M195.164 162.655C192.634 168.408 191.328 174.624 191.329 180.908C191.329 183.017 196.774 182.135 197.541 181.867C207.55 178.607 215.986 170.938 216.715 159.856C217.078 157.42 216.787 154.932 215.871 152.646C215.113 151.918 214.192 151.382 213.185 151.082C212.178 150.781 211.114 150.726 210.081 150.921C207.531 150.842 205.016 151.531 202.862 152.898C200.708 154.266 199.015 156.249 198.002 158.59C196.966 162.041 208.048 160.507 209.084 157.018L205.249 156.826L205.518 158.092C205.326 158.974 205.786 160.699 205.518 161.696C205.431 163.775 204.991 165.825 204.214 167.755C203.569 169.731 202.53 171.556 201.159 173.118C199.788 174.68 198.114 175.948 196.238 176.843L202.45 177.84C202.565 172.038 203.871 166.322 206.284 161.044C207.627 158.053 196.736 159.204 195.241 162.578L195.164 162.655Z" fill="white"/>
<path d="M67.0477 220.108C65.0851 222.952 63.7315 226.171 63.0716 229.563C62.4118 232.955 62.4598 236.446 63.213 239.819C63.9416 243.04 70.6139 241.084 72.2245 239.819C77.3246 236.214 84.2271 231.382 84.0353 224.48C83.9888 223.022 83.6228 221.592 82.9634 220.291C82.304 218.99 81.3671 217.849 80.2189 216.95C79.0707 216.05 77.7392 215.414 76.3181 215.085C74.8971 214.756 73.4211 214.743 71.9944 215.047C70.0771 215.238 65.974 216.465 65.6672 218.881C65.3605 221.297 68.85 221.45 70.4606 221.259C70.4606 221.259 72.0712 223.598 72.3013 224.173C72.9295 225.571 73.0515 227.144 72.6464 228.621C71.2175 232.096 68.6295 234.969 65.3221 236.751H74.3336C73.635 233.952 73.5333 231.037 74.0354 228.196C74.5376 225.355 75.6321 222.652 77.2479 220.262C78.6667 218.076 75.9825 217.079 74.2186 217.002C72.847 216.91 71.4725 217.135 70.2022 217.66C68.9318 218.186 67.7999 218.997 66.8944 220.032L67.0477 220.108Z" fill="white"/>
<path d="M157.928 224.097C152.691 228.954 149.065 235.297 147.536 242.274C146.539 248.946 152.291 251.707 158.12 250.518C171.618 247.757 176.948 230.578 174.647 218.69C174.225 216.581 171.272 216.351 169.662 216.39C163.603 216.62 156.471 220.876 157.698 227.702C158.541 232.418 169.7 229.658 168.818 224.711L168.512 223.944L163.526 221.643C164.211 224.958 164.186 228.381 163.452 231.686C162.719 234.991 161.293 238.102 159.27 240.816C157.429 243.232 157.813 242.926 158.925 240.395C159.615 238.784 159.999 237.058 160.765 235.486C162.386 232.259 164.523 229.319 167.093 226.782C167.486 226.428 167.774 225.973 167.925 225.466C168.076 224.96 168.085 224.422 167.95 223.91C167.816 223.399 167.543 222.935 167.161 222.569C166.78 222.203 166.305 221.949 165.789 221.835C164.409 221.468 162.956 221.47 161.577 221.841C160.198 222.211 158.939 222.936 157.928 223.944V224.097Z" fill="white"/>
</svg>
