<svg width="115" height="130" viewBox="0 0 115 130" fill="none" xmlns="http://www.w3.org/2000/svg">
<path d="M48.2466 23.9733C46.8908 26.6203 46.4036 29.6272 46.8544 32.5669C47.0464 33.7671 49.5429 33.143 50.055 32.919C54.2158 31.1586 57.1123 26.5178 55.336 22.0689C54.6799 20.4686 50.103 21.8129 50.6951 23.3171C51.7353 25.9256 51.0632 29.7184 48.2147 30.9666L51.4153 31.3187C51.0193 28.8599 51.3938 26.3388 52.4874 24.1013C53.4796 22.101 48.8548 22.581 48.1666 23.9733H48.2466Z" fill="#A586FF"/>
<path d="M77.5795 25.9055C77.4034 28.1459 77.2114 30.3863 77.0353 32.6268C76.8913 34.4031 79.3238 34.4671 80.444 33.923C81.4746 33.4568 82.4016 32.7891 83.1703 31.9593C83.939 31.1295 84.534 30.1543 84.9202 29.0911C85.3064 28.0279 85.4761 26.8982 85.4191 25.7685C85.3622 24.6388 85.0799 23.5318 84.5888 22.5128C83.6286 20.5445 79.2438 22.3208 80.364 24.5933C80.8857 25.7213 80.9664 27.0037 80.5903 28.1883C80.2141 29.3729 79.4084 30.3739 78.3316 30.9945L81.7402 32.3067C81.9323 30.0663 82.1083 27.8258 82.2843 25.6014C82.4924 23.1049 77.7555 23.6651 77.5795 25.8895V25.9055Z" fill="#A586FF"/>
<path d="M57.4483 49.0004C58.4404 50.9688 56.232 52.7451 57.0002 54.7775C57.6403 56.5058 59.5287 56.2978 61.017 55.8977C63.3374 55.2736 64.2175 53.7533 65.2097 51.7529C66.4634 49.3582 67.5697 46.8891 68.5224 44.3595C68.7624 43.7354 67.4982 43.8154 67.2261 43.8314C64.2976 44.0394 60.6809 45.4317 60.5848 48.8563C60.5848 49.5765 65.1938 48.9684 65.2258 47.6241C65.2065 47.1589 65.3056 46.6964 65.5138 46.2799C66.1966 45.6397 66.1006 45.4477 65.2258 45.7038L63.9455 45.1756C63.2894 46.904 62.5852 48.6003 61.7851 50.2646C61.1769 51.5288 60.2968 54.3614 59.0486 55.0655L61.257 54.2814C62.2332 54.1374 61.6091 53.5453 61.513 53.0492C61.446 52.3387 61.579 51.6236 61.8971 50.9848C62.1573 50.4961 62.3078 49.9566 62.3382 49.4039C62.3686 48.8511 62.2782 48.2984 62.0732 47.7842C61.497 46.6479 57.0642 48.2802 57.4483 49.0164V49.0004Z" fill="#A586FF"/>
<path d="M25.3619 47.8814C24.538 48.8654 23.9863 50.048 23.7617 51.3114C23.537 52.5749 23.6473 53.8752 24.0816 55.0828C24.5137 56.267 26.5461 55.899 27.2822 55.5309C29.5338 54.6036 31.4219 52.968 32.6607 50.8716C33.8995 48.7752 34.4214 46.3323 34.1475 43.9127C33.9555 42.4724 30.9469 43.2726 30.3548 43.7527L26.4181 46.7132C23.9056 48.6016 27.7943 49.4497 29.3466 48.3135L33.2833 45.353L29.5066 45.1929C29.7537 46.823 29.4912 48.4896 28.755 49.9648C28.0189 51.4401 26.8449 52.6518 25.3939 53.4345L28.5945 53.8826C28.2222 52.9225 28.1179 51.8794 28.2927 50.8646C28.4675 49.8499 28.9147 48.9017 29.5866 48.1215C30.3068 47.2253 28.9625 46.6492 28.2904 46.6012C27.7134 46.562 27.1353 46.6606 26.6039 46.8887C26.0725 47.1169 25.6028 47.4681 25.2338 47.9134L25.3619 47.8814Z" fill="#A586FF"/>
<path d="M36.292 69.5654C34.6645 73.0563 33.3575 76.688 32.3873 80.4155C31.9072 82.2238 36.0359 80.7995 36.532 80.4155C38.7405 78.7729 40.4752 76.5754 41.56 74.0459C42.6449 71.5164 43.0414 68.7449 42.7092 66.0127C42.5492 64.7165 39.5086 65.6767 38.9645 66.0127L36.7401 67.453C34.1316 69.1494 38.1804 69.5814 39.5727 68.6692L41.8131 67.229H38.0684C38.3812 69.5968 38.0635 72.0052 37.1475 74.211C36.2315 76.4168 34.7495 78.3417 32.8514 79.7914H36.9961C37.9718 76.0582 39.2841 72.4213 40.9169 68.9253C41.509 67.677 36.9641 68.1251 36.292 69.5654Z" fill="#A586FF"/>
<path d="M74.6678 69.3057C73.8194 72.3875 73.5641 75.6024 73.9156 78.7794C74.1077 80.5718 77.8524 78.8914 78.3965 78.2193C79.8064 76.4983 80.8421 74.5023 81.4373 72.3585C82.0325 70.2148 82.1741 67.9705 81.8531 65.769C81.6291 64.1687 76.9722 65.2409 77.2123 67.0012C77.4896 68.9734 77.348 70.9819 76.7965 72.8956C76.245 74.8093 75.296 76.5852 74.0117 78.1073L78.4925 77.5472C78.1808 74.5869 78.436 71.5943 79.2446 68.7295C79.7087 67.1292 75.0518 67.7054 74.6038 69.3057H74.6678Z" fill="#A586FF"/>
<path d="M86.4137 47.0481C85.7871 48.3476 85.4301 49.7605 85.3641 51.2016C85.2981 52.6428 85.5245 54.0824 86.0296 55.4337C86.4137 56.4739 89.5503 55.2416 90.1264 54.8736C92.4788 53.2733 95.6154 51.0009 95.2953 47.7842C94.9753 44.5676 92.2708 43.7195 89.5983 44.1675C89.0862 44.2476 86.8778 44.7117 86.8778 45.4318C86.8778 46.1519 88.222 45.9599 88.7341 45.8639C88.9741 45.8639 90.0304 47.1761 90.1744 47.4642C90.6056 48.2495 90.7685 49.1542 90.6384 50.0407C90.2384 52.1851 88.27 53.6574 86.5737 54.8416L90.6705 54.2815C90.1678 52.9981 89.9367 51.6244 89.9918 50.2472C90.0469 48.8699 90.387 47.5191 90.9905 46.28C91.3106 45.5918 86.9738 45.9119 86.4137 47.0961V47.0481Z" fill="#A586FF"/>
<path d="M68.058 2.75318C67.3609 5.72942 67.1234 8.79486 67.3538 11.8429C67.4339 13.0432 71.3546 11.4108 71.7707 11.0588C72.9676 10.0714 73.9166 8.8175 74.5419 7.39747C75.1671 5.97744 75.4512 4.43077 75.3714 2.88123C75.2754 1.37695 75.0513 0.304742 73.419 0.128709C71.7091 0.00938104 70.0112 0.490465 68.6181 1.48898C67.8659 2.04908 68.058 2.38515 68.8901 2.54518C70.0504 2.61748 71.2025 2.30836 72.1708 1.66499L70.4904 2.51315L70.6185 3.04127C70.6185 3.47336 70.7465 3.95341 70.7625 4.40149C70.7841 5.33258 70.6599 6.26132 70.3944 7.15402C69.8936 8.80963 68.9135 10.2798 67.5779 11.3788L72.0107 10.5947C71.7829 7.69837 71.9988 4.78419 72.6508 1.95303C72.8909 0.912832 68.346 1.56896 68.074 2.75318H68.058Z" fill="#A586FF"/>
<path d="M29.347 15.7149C28.0668 17.1072 26.2585 19.1876 27.5707 21.1559C28.883 23.1243 31.1394 22.4522 32.8197 21.8281C37.3486 20.1478 37.1085 13.8265 34.8041 10.4019C34.0999 9.3937 30.6913 10.562 30.1952 11.4421L28.2108 14.8988C27.7947 15.6189 29.8111 15.3468 30.0672 15.3148C30.8673 15.1708 32.3236 14.8507 32.7877 14.0666C33.4438 12.9144 34.1 11.7622 34.7721 10.6099L30.1632 11.6501C30.9427 12.7262 31.4601 13.9695 31.674 15.2809C31.888 16.5923 31.7926 17.9356 31.3954 19.2036C31.0433 20.2598 30.1792 20.6278 31.8115 20.5158C33.4438 20.4038 32.2116 20.3398 31.8115 19.2036C31.3474 17.7153 32.5797 16.339 33.4118 15.3309C34.0999 14.5947 32.8037 14.5787 32.3236 14.6107C31.1955 14.6279 30.1046 15.0159 29.219 15.7149H29.347Z" fill="#A586FF"/>
<path d="M104.657 18.0532C103.473 19.9735 102.065 22.8541 102.689 25.1585C103.313 27.463 106.161 26.9349 107.794 26.1667C112.243 24.0863 112.595 17.8772 109.938 14.3405C109.138 13.3003 104.673 14.8205 105.601 16.0528C106.595 17.3542 107.105 18.9613 107.042 20.5977C107.015 21.4666 106.831 22.3234 106.497 23.1261C106.324 23.5492 106.104 23.9518 105.841 24.3264C105.351 24.7104 105.351 24.8545 105.841 24.7584H107.97C105.921 24.1663 108.386 18.9174 108.962 17.9892C109.938 16.3889 105.377 17.013 104.705 18.1172L104.657 18.0532Z" fill="#A586FF"/>
<path d="M105.297 67.6733C104.242 70.074 103.697 72.6681 103.697 75.2907C103.697 76.1709 105.97 75.8028 106.29 75.6908C110.466 74.3305 113.987 71.1299 114.291 66.5051C114.443 65.4887 114.321 64.4504 113.939 63.4965C113.623 63.1926 113.239 62.9687 112.818 62.8434C112.398 62.7182 111.954 62.6952 111.523 62.7763C110.458 62.7433 109.409 63.0308 108.51 63.6015C107.611 64.1722 106.905 64.9998 106.482 65.9769C106.05 67.4172 110.674 66.7771 111.107 65.3208L109.506 65.2408L109.618 65.7689C109.538 66.137 109.73 66.8571 109.618 67.2732C109.582 68.1409 109.398 68.996 109.074 69.8017C108.805 70.6264 108.372 71.3879 107.799 72.0399C107.227 72.6918 106.528 73.2207 105.746 73.5944L108.338 74.0104C108.386 71.5891 108.931 69.2035 109.938 67.0012C110.498 65.7529 105.954 66.233 105.329 67.6413L105.297 67.6733Z" fill="#A586FF"/>
<path d="M2.92583 95.69C-0.418809 97.5464 -1.28295 105.612 3.99805 104.732C9.27905 103.852 10.9594 96.1541 10.0792 91.6732C9.77513 90.1849 6.51051 91.2092 5.8864 91.8973C5.26228 92.5854 4.8462 93.0655 4.28609 93.6416C2.47775 95.674 6.95863 95.61 8.01483 94.4418L9.61513 92.6974L5.43831 92.9215C5.79609 94.6344 5.76878 96.4054 5.35832 98.1065C5.17101 98.8845 4.90284 99.6407 4.55817 100.363C4.27011 100.939 2.79783 102.347 4.11008 102.187L5.63034 102.347C4.38211 101.739 4.70219 97.7224 5.8064 97.0983C6.57455 96.6822 7.05464 95.834 6.20648 95.2579C5.35832 94.6818 3.72598 95.2579 2.92583 95.69Z" fill="#A586FF"/>
<path d="M14.5282 121.744C13.0879 122.896 10.8475 124.704 11.3275 126.833C11.6142 127.715 12.2363 128.45 13.0595 128.878C13.8828 129.306 14.8413 129.393 15.7284 129.121C18.4329 128.657 19.3451 127.025 20.1772 124.592C21.1617 121.641 21.9161 118.618 22.4337 115.55C22.7377 113.95 18.5129 115.31 18.0169 115.967C16.1775 118.252 14.9789 120.986 14.5442 123.888C14.3201 125.344 18.945 124.512 19.137 123.184C19.5437 120.493 20.647 117.955 22.3376 115.823L17.9048 116.239C17.4001 119.172 16.6834 122.066 15.7604 124.896C15.4676 125.539 15.2371 126.209 15.0723 126.897H16.8326C16.4831 126.679 16.2309 126.335 16.1285 125.936C15.6164 124.336 17.2007 123.088 18.2409 122.256C19.009 121.632 18.753 121.135 17.8888 120.927C16.723 120.791 15.5491 121.106 14.6082 121.808L14.5282 121.744Z" fill="#A586FF"/>
<path d="M51.8313 91.65C51.0123 92.8369 50.4474 94.1802 50.172 95.5957C49.8966 97.0111 49.9167 98.4682 50.231 99.8756C50.535 101.22 53.3196 100.404 53.9917 99.8756C56.1201 98.3713 59.0007 96.3549 58.9207 93.4744C58.9012 92.866 58.7485 92.2692 58.4733 91.7263C58.1981 91.1833 57.8071 90.7073 57.328 90.3319C56.8488 89.9565 56.2931 89.6908 55.7001 89.5536C55.107 89.4164 54.4911 89.4109 53.8957 89.5376C53.0955 89.6176 51.3832 90.1297 51.2552 91.1379C51.1272 92.1461 52.5834 92.2101 53.2556 92.1301C53.2556 92.1301 53.9277 93.1063 54.0237 93.3464C54.2859 93.9296 54.3368 94.586 54.1677 95.2027C53.5715 96.6528 52.4914 97.8516 51.1112 98.5954H54.8719C54.5803 97.4272 54.5379 96.2108 54.7474 95.0252C54.957 93.8397 55.4138 92.7115 56.0881 91.7141C56.6802 90.8019 55.56 90.3858 54.8239 90.3538C54.2515 90.3152 53.6779 90.4091 53.1477 90.6284C52.6176 90.8477 52.1452 91.1863 51.7673 91.618L51.8313 91.65Z" fill="#A586FF"/>
<path d="M89.7579 93.3147C87.5724 95.3416 86.0591 97.9884 85.4211 100.9C85.005 103.685 87.4054 104.837 89.8379 104.341C95.4709 103.189 97.6954 96.0192 96.7352 91.0582C96.5591 90.1781 95.3269 90.082 94.6548 90.0981C92.1263 90.1941 89.1498 91.9704 89.6619 94.8189C90.0139 96.7873 94.6708 95.6351 94.3027 93.5707L94.1747 93.2507L92.0943 92.2905C92.3801 93.674 92.3696 95.1024 92.0634 96.4815C91.7572 97.8607 91.1624 99.1594 90.318 100.292C89.5498 101.3 89.7099 101.172 90.174 100.116C90.462 99.4438 90.622 98.7237 90.9421 98.0675C91.6184 96.7208 92.5104 95.4938 93.5826 94.4349C93.7466 94.2873 93.8668 94.0974 93.93 93.886C93.9931 93.6746 93.9968 93.45 93.9406 93.2366C93.8843 93.0233 93.7704 92.8296 93.6112 92.6768C93.4521 92.524 93.2539 92.418 93.0385 92.3705C92.4624 92.2176 91.8564 92.2184 91.2807 92.3728C90.7051 92.5273 90.18 92.8299 89.7579 93.2507V93.3147Z" fill="#A586FF"/>
</svg>
