<svg width="107" height="120" viewBox="0 0 107 120" fill="none" xmlns="http://www.w3.org/2000/svg">
<path d="M44.8509 22.4976C43.5954 24.9485 43.1444 27.7327 43.5617 30.4546C43.7396 31.5659 46.0511 30.988 46.5252 30.7806C50.3778 29.1506 53.0597 24.8536 51.415 20.7343C50.8074 19.2526 46.5697 20.4973 47.1179 21.8901C48.0811 24.3053 47.4587 27.8171 44.8212 28.9728L47.7847 29.2988C47.4181 27.0222 47.7648 24.6879 48.7775 22.6162C49.6961 20.764 45.4139 21.2085 44.7768 22.4976H44.8509Z" fill="white"/>
<path d="M72.0105 24.2865C71.8476 26.361 71.6697 28.4354 71.5067 30.5099C71.3734 32.1546 73.6256 32.2139 74.6628 31.7101C75.6171 31.2784 76.4754 30.6602 77.1871 29.8919C77.8989 29.1235 78.4498 28.2206 78.8074 27.2362C79.165 26.2518 79.3221 25.2057 79.2694 24.1597C79.2167 23.1137 78.9553 22.0887 78.5005 21.1452C77.6115 19.3227 73.5515 20.9675 74.5888 23.0715C75.0718 24.116 75.1465 25.3034 74.7983 26.4003C74.45 27.4971 73.704 28.4239 72.7069 28.9985L75.863 30.2135C76.0408 28.1391 76.2038 26.0646 76.3668 24.005C76.5595 21.6935 72.1735 22.2121 72.0105 24.2717V24.2865Z" fill="white"/>
<path d="M53.3708 45.6707C54.2895 47.4932 52.2447 49.138 52.9559 51.0198C53.5486 52.6201 55.2971 52.4274 56.6751 52.057C58.8237 51.4791 59.6386 50.0715 60.5573 48.2193C61.7181 46.002 62.7424 43.7158 63.6245 41.3736C63.8468 40.7957 62.6762 40.8698 62.4243 40.8847C59.7127 41.0773 56.3639 42.3664 56.275 45.5373C56.275 46.2041 60.5425 45.641 60.5721 44.3964C60.5543 43.9656 60.6461 43.5374 60.8388 43.1517C61.471 42.559 61.3821 42.3812 60.5721 42.6183L59.3867 42.1293C58.7792 43.7296 58.1272 45.3002 57.3863 46.8412C56.8233 48.0118 56.0083 50.6345 54.8526 51.2865L56.8974 50.5604C57.8013 50.4271 57.2234 49.8788 57.1345 49.4195C57.0724 48.7617 57.1955 48.0995 57.4901 47.508C57.731 47.0556 57.8703 46.5561 57.8985 46.0443C57.9266 45.5325 57.8429 45.0207 57.6531 44.5446C57.1197 43.4925 53.0152 45.0039 53.3708 45.6855V45.6707Z" fill="white"/>
<path d="M23.6615 44.6351C22.8987 45.5461 22.3878 46.6411 22.1798 47.811C21.9719 48.9808 22.074 50.1848 22.4761 51.3029C22.8761 52.3994 24.7579 52.0586 25.4395 51.7178C27.5243 50.8593 29.2726 49.3448 30.4196 47.4037C31.5666 45.4626 32.0499 43.2007 31.7962 40.9603C31.6184 39.6268 28.8328 40.3677 28.2845 40.8122L24.6394 43.5534C22.3131 45.3019 25.9137 46.0872 27.351 45.0351L30.9961 42.2939L27.4992 42.1458C27.728 43.6551 27.4849 45.1982 26.8033 46.5641C26.1216 47.9301 25.0347 49.0521 23.6911 49.7767L26.6546 50.1916C26.3099 49.3027 26.2134 48.3368 26.3752 47.3973C26.537 46.4577 26.9511 45.5797 27.5733 44.8573C28.24 44.0276 26.9954 43.4942 26.3731 43.4497C25.8388 43.4134 25.3036 43.5047 24.8115 43.7159C24.3194 43.9272 23.8846 44.2524 23.5429 44.6647L23.6615 44.6351Z" fill="white"/>
<path d="M33.782 64.712C32.275 67.9443 31.0649 71.3069 30.1665 74.7582C29.722 76.4326 33.5449 75.1138 34.0042 74.7582C36.049 73.2373 37.6552 71.2026 38.6597 68.8605C39.6642 66.5184 40.0313 63.9523 39.7238 61.4225C39.5756 60.2223 36.7603 61.1114 36.2565 61.4225L34.1968 62.7561C31.7816 64.3268 35.5304 64.7268 36.8196 63.8822L38.894 62.5487H35.4267C35.7164 64.7411 35.4222 66.9711 34.5741 69.0134C33.7259 71.0558 32.3538 72.8381 30.5962 74.1804H34.4339C35.3373 70.7238 36.5524 67.3563 38.0642 64.1193C38.6125 62.9635 34.4043 63.3784 33.782 64.712Z" fill="white"/>
<path d="M69.3146 64.4718C68.5291 67.3253 68.2928 70.302 68.6182 73.2437C68.796 74.9033 72.2633 73.3475 72.7671 72.7251C74.0726 71.1316 75.0315 69.2835 75.5826 67.2985C76.1337 65.3136 76.2648 63.2356 75.9677 61.1972C75.7602 59.7154 71.4484 60.7082 71.6706 62.3381C71.9275 64.1642 71.7963 66.0239 71.2856 67.7958C70.775 69.5678 69.8964 71.2121 68.7071 72.6214L72.856 72.1028C72.5674 69.3618 72.8037 66.5909 73.5524 63.9384C73.9821 62.4566 69.6703 62.9901 69.2554 64.4718H69.3146Z" fill="white"/>
<path d="M80.1902 43.8633C79.6101 45.0666 79.2796 46.3748 79.2184 47.7091C79.1573 49.0435 79.3669 50.3764 79.8346 51.6277C80.1903 52.5908 83.0945 51.4498 83.6279 51.109C85.8061 49.6273 88.7102 47.5232 88.4139 44.5449C88.1175 41.5666 85.6134 40.7813 83.1389 41.1962C82.6647 41.2703 80.62 41.7 80.62 42.3668C80.62 43.0336 81.8646 42.8557 82.3387 42.7668C82.561 42.7668 83.539 43.9819 83.6723 44.2486C84.0716 44.9757 84.2225 45.8134 84.102 46.6342C83.7316 48.6197 81.9091 49.9829 80.3384 51.0794L84.1317 50.5608C83.6663 49.3725 83.4523 48.1006 83.5033 46.8254C83.5543 45.5502 83.8692 44.2994 84.428 43.1521C84.7244 42.5149 80.7089 42.8113 80.1902 43.9078V43.8633Z" fill="white"/>
<path d="M63.1944 2.8499C62.5489 5.60564 62.3291 8.44397 62.5424 11.2662C62.6165 12.3775 66.2468 10.8661 66.632 10.5402C67.7403 9.62594 68.619 8.46494 69.1979 7.15011C69.7768 5.83529 70.0399 4.4032 69.966 2.96847C69.8771 1.57563 69.6696 0.582857 68.1582 0.419865C66.575 0.309378 65.0029 0.75482 63.713 1.67936C63.0166 2.19797 63.1944 2.50914 63.9649 2.65731C65.0392 2.72425 66.1059 2.43803 67.0025 1.84233L65.4466 2.62765L65.5652 3.11665C65.5652 3.51672 65.6837 3.96121 65.6985 4.3761C65.7185 5.2382 65.6035 6.09813 65.3577 6.9247C64.894 8.45765 63.9866 9.81888 62.7499 10.8365L66.8543 10.1105C66.6433 7.42872 66.8432 4.73044 67.447 2.10903C67.6692 1.1459 63.4611 1.75341 63.2092 2.8499H63.1944Z" fill="white"/>
<path d="M27.3513 14.8511C26.1659 16.1402 24.4916 18.0665 25.7066 19.889C26.9216 21.7115 29.0109 21.0892 30.5667 20.5114C34.7601 18.9555 34.5378 13.1026 32.4041 9.93169C31.7521 8.99819 28.596 10.0799 28.1366 10.8949L26.2993 14.0954C25.914 14.7622 27.781 14.5103 28.0181 14.4806C28.759 14.3473 30.1074 14.0509 30.5371 13.3249C31.1446 12.258 31.7521 11.1912 32.3745 10.1243L28.107 11.0874C28.8288 12.0838 29.3078 13.235 29.5059 14.4492C29.704 15.6635 29.6157 16.9072 29.2479 18.0813C28.922 19.0592 28.1218 19.4 29.6332 19.2963C31.1446 19.1926 30.0037 19.1333 29.6332 18.0813C29.2035 16.7033 30.3445 15.429 31.115 14.4955C31.7521 13.8139 30.5519 13.799 30.1073 13.8287C29.0629 13.8446 28.0527 14.2039 27.2328 14.8511H27.3513Z" fill="white"/>
<path d="M97.0821 17.0164C95.9856 18.7945 94.6816 21.4616 95.2595 23.5953C95.8374 25.729 98.4749 25.2401 99.9863 24.5288C104.106 22.6026 104.431 16.8534 101.972 13.5788C101.231 12.6156 97.0969 14.0233 97.9563 15.1642C98.8766 16.3692 99.3482 17.8573 99.2898 19.3724C99.2656 20.1769 99.0948 20.9702 98.7861 21.7135C98.6252 22.1053 98.4215 22.478 98.1785 22.8248C97.7241 23.1805 97.7241 23.3138 98.1785 23.2249H100.149C98.2527 22.6767 100.535 17.8166 101.068 16.9571C101.972 15.4754 97.7488 16.0533 97.1265 17.0757L97.0821 17.0164Z" fill="white"/>
<path d="M97.675 62.9605C96.6975 65.1834 96.1929 67.5853 96.1933 70.0136C96.1933 70.8286 98.2974 70.4878 98.5937 70.384C102.461 69.1245 105.721 66.1611 106.002 61.8788C106.143 60.9378 106.03 59.9764 105.676 59.0932C105.384 58.8118 105.028 58.6045 104.639 58.4885C104.249 58.3725 103.838 58.3512 103.439 58.4263C102.454 58.3958 101.482 58.662 100.65 59.1904C99.8173 59.7188 99.163 60.4851 98.7716 61.3898C98.3715 62.7234 102.654 62.1307 103.054 60.7823L101.572 60.7082L101.676 61.1972C101.602 61.538 101.779 62.2048 101.676 62.59C101.643 63.3934 101.472 64.1853 101.172 64.9312C100.923 65.6949 100.521 66.3999 99.9916 67.0036C99.4618 67.6073 98.8148 68.097 98.0899 68.4429L100.49 68.8282C100.535 66.5862 101.039 64.3774 101.972 62.3382C102.491 61.1824 98.2826 61.6269 97.7047 62.9309L97.675 62.9605Z" fill="white"/>
<path d="M2.88769 88.9013C-0.209155 90.6201 -1.00928 98.0881 3.88048 97.2731C8.77023 96.4581 10.326 89.3309 9.51108 85.1821C9.22955 83.804 6.2068 84.7524 5.62892 85.3895C5.05104 86.0267 4.66579 86.4712 4.14718 87.0046C2.47281 88.8864 6.62172 88.8272 7.59967 87.7455L9.08141 86.1304L5.21404 86.3378C5.54531 87.9238 5.52002 89.5637 5.13997 91.1387C4.96654 91.859 4.71823 92.5593 4.3991 93.228C4.13238 93.7614 2.76918 95.0653 3.98421 94.9171L5.39184 95.0653C4.23608 94.5022 4.53245 90.7831 5.55485 90.2052C6.26609 89.8199 6.71061 89.0346 5.92529 88.5012C5.13997 87.9678 3.62856 88.5012 2.88769 88.9013Z" fill="white"/>
<path d="M13.6304 113.025C12.2969 114.092 10.2224 115.766 10.6669 117.737C10.9324 118.554 11.5083 119.234 12.2706 119.63C13.0329 120.027 13.9204 120.107 14.7417 119.856C17.2459 119.426 18.0905 117.914 18.861 115.662C19.7725 112.93 20.4711 110.131 20.9502 107.29C21.2318 105.809 17.32 107.068 16.8607 107.676C15.1576 109.792 14.0478 112.323 13.6453 115.01C13.4378 116.359 17.72 115.588 17.8979 114.358C18.2744 111.867 19.296 109.517 20.8613 107.542L16.7569 107.927C16.2896 110.644 15.626 113.323 14.7714 115.944C14.5002 116.539 14.2868 117.16 14.1342 117.796H15.7641C15.4406 117.594 15.2071 117.276 15.1122 116.907C14.638 115.425 16.105 114.269 17.0681 113.499C17.7793 112.921 17.5422 112.462 16.7421 112.269C15.6626 112.142 14.5757 112.434 13.7045 113.084L13.6304 113.025Z" fill="white"/>
<path d="M48.17 85.1609C47.4116 86.2599 46.8886 87.5036 46.6336 88.8142C46.3786 90.1248 46.3972 91.474 46.6882 92.7771C46.9698 94.0217 49.548 93.266 50.1704 92.7771C52.1411 91.3842 54.8082 89.5172 54.7341 86.8501C54.7161 86.2868 54.5747 85.7343 54.3199 85.2315C54.0651 84.7288 53.7031 84.2881 53.2595 83.9405C52.8158 83.5929 52.3013 83.3469 51.7522 83.2198C51.2031 83.0927 50.6327 83.0877 50.0815 83.205C49.3406 83.2791 47.7551 83.7533 47.6366 84.6868C47.518 85.6203 48.8664 85.6795 49.4888 85.6054C49.4888 85.6054 50.1111 86.5093 50.2 86.7316C50.4428 87.2716 50.4899 87.8794 50.3334 88.4504C49.7813 89.793 48.7812 90.903 47.5032 91.5917H50.9853C50.7154 90.5101 50.6761 89.3838 50.8701 88.2861C51.0641 87.1883 51.4871 86.1437 52.1114 85.2202C52.6597 84.3756 51.6225 83.9904 50.9409 83.9607C50.4109 83.925 49.8798 84.012 49.3889 84.215C48.898 84.418 48.4606 84.7316 48.1108 85.1313L48.17 85.1609Z" fill="white"/>
<path d="M83.2868 86.7019C81.2632 88.5786 79.8621 91.0294 79.2713 93.7253C78.8861 96.3036 81.1087 97.3704 83.3609 96.9111C88.5766 95.8442 90.6363 89.206 89.7472 84.6126C89.5842 83.7977 88.4433 83.7088 87.821 83.7236C85.4798 83.8125 82.7238 85.4572 83.1979 88.0947C83.5239 89.9172 87.8358 88.8504 87.495 86.9389L87.3765 86.6426L85.4502 85.7536C85.7148 87.0346 85.705 88.3572 85.4215 89.6341C85.1381 90.9111 84.5873 92.1136 83.8055 93.1623C83.0942 94.0958 83.2424 93.9773 83.6721 92.9993C83.9388 92.377 84.087 91.7101 84.3833 91.1026C85.0095 89.8557 85.8354 88.7196 86.8282 87.7391C86.9801 87.6025 87.0914 87.4266 87.1498 87.2309C87.2083 87.0352 87.2117 86.8272 87.1596 86.6296C87.1076 86.4321 87.0021 86.2528 86.8547 86.1113C86.7074 85.9698 86.5239 85.8716 86.3244 85.8276C85.791 85.6861 85.2299 85.6868 84.6969 85.8298C84.1639 85.9728 83.6777 86.2531 83.2868 86.6426V86.7019Z" fill="white"/>
</svg>
