<svg width="111" height="125" viewBox="0 0 111 125" fill="none" xmlns="http://www.w3.org/2000/svg">
<path d="M46.9365 23.0929C45.6226 25.6545 45.1505 28.5645 45.5873 31.4094C45.7734 32.5709 48.1927 31.9669 48.6889 31.7501C52.7211 30.0465 55.5281 25.5553 53.8066 21.2499C53.1708 19.7013 48.7355 21.0022 49.3093 22.4579C50.3173 24.9823 49.666 28.6527 46.9055 29.8607L50.0071 30.2014C49.6234 27.8219 49.9863 25.3821 51.0462 23.2168C52.0077 21.2809 47.5258 21.7455 46.859 23.0929H46.9365Z" fill="#05DDA9"/>
<path d="M75.3623 24.963C75.1917 27.1311 75.0056 29.2993 74.835 31.4675C74.6954 33.1866 77.0527 33.2485 78.1383 32.7219C79.137 32.2708 80.0353 31.6246 80.7803 30.8216C81.5252 30.0185 82.1018 29.0748 82.4761 28.0459C82.8504 27.017 83.0147 25.9237 82.9596 24.8304C82.9044 23.7371 82.6308 22.6659 82.1549 21.6798C81.2244 19.7749 76.9752 21.4939 78.0607 23.6931C78.5663 24.7848 78.6445 26.0258 78.28 27.1722C77.9155 28.3186 77.1347 29.2873 76.0912 29.8879L79.3944 31.1577C79.5805 28.9896 79.7511 26.8214 79.9217 24.6687C80.1233 22.2528 75.5329 22.7948 75.3623 24.9475V24.963Z" fill="#05DDA9"/>
<path d="M55.8535 47.313C56.815 49.2179 54.6749 50.9369 55.4193 52.9037C56.0396 54.5763 57.8696 54.375 59.3119 53.9878C61.5606 53.3839 62.4135 51.9126 63.375 49.9767C64.5899 47.6592 65.662 45.2698 66.5852 42.8217C66.8179 42.2177 65.5927 42.2952 65.3291 42.3107C62.4911 42.512 58.9862 43.8594 58.8931 47.1736C58.8931 47.8705 63.3595 47.282 63.3905 45.9811C63.3719 45.5309 63.4679 45.0833 63.6697 44.6802C64.3314 44.0607 64.2383 43.8749 63.3905 44.1227L62.1498 43.6116C61.514 45.2842 60.8316 46.9258 60.0562 48.5364C59.4669 49.7599 58.614 52.5011 57.4043 53.1825L59.5445 52.4237C60.4905 52.2843 59.8857 51.7113 59.7926 51.2312C59.7276 50.5436 59.8565 49.8516 60.1648 49.2333C60.4169 48.7605 60.5628 48.2384 60.5923 47.7035C60.6217 47.1685 60.5341 46.6336 60.3354 46.136C59.7771 45.0364 55.4813 46.616 55.8535 47.3284V47.313Z" fill="#05DDA9"/>
<path d="M24.7591 46.2299C23.9607 47.1821 23.426 48.3265 23.2083 49.5493C22.9906 50.772 23.0975 52.0304 23.5184 53.199C23.9371 54.3451 25.9066 53.9889 26.62 53.6327C28.802 52.7353 30.6318 51.1524 31.8322 49.1236C33.0327 47.0949 33.5385 44.7307 33.2731 42.3891C33.087 40.9953 30.1714 41.7697 29.5976 42.2343L25.7826 45.0993C23.3478 46.9268 27.1163 47.7476 28.6206 46.648L32.4356 43.783L28.7757 43.6281C29.0151 45.2056 28.7607 46.8185 28.0473 48.2461C27.3339 49.6738 26.1963 50.8465 24.7901 51.6039L27.8917 52.0375C27.531 51.1084 27.4299 50.0989 27.5993 49.1169C27.7686 48.1349 28.202 47.2173 28.8532 46.4622C29.5511 45.5949 28.2484 45.0374 27.597 44.991C27.0379 44.9531 26.4777 45.0484 25.9627 45.2692C25.4477 45.49 24.9926 45.8299 24.635 46.2609L24.7591 46.2299Z" fill="#05DDA9"/>
<path d="M35.3513 67.2146C33.7741 70.5929 32.5076 74.1074 31.5673 77.7147C31.1021 79.4647 35.1032 78.0864 35.584 77.7147C37.7241 76.1251 39.4052 73.9985 40.4565 71.5506C41.5078 69.1027 41.8921 66.4206 41.5702 63.7765C41.4151 62.522 38.4685 63.4513 37.9412 63.7765L35.7856 65.1703C33.2577 66.812 37.1813 67.2301 38.5306 66.3473L40.7017 64.9535H37.0728C37.3759 67.245 37.0681 69.5757 36.1804 71.7104C35.2927 73.845 33.8566 75.7079 32.0171 77.1108H36.0337C36.9792 73.498 38.2509 69.9784 39.8333 66.5951C40.4071 65.3871 36.0027 65.8208 35.3513 67.2146Z" fill="#05DDA9"/>
<path d="M72.5407 66.9634C71.7185 69.9458 71.4712 73.057 71.8118 76.1316C71.9979 77.8661 75.6269 76.24 76.1541 75.5896C77.5205 73.9241 78.5242 71.9924 79.1009 69.9178C79.6777 67.8432 79.8149 65.6713 79.5039 63.5407C79.2868 61.992 74.7739 63.0297 75.0065 64.7333C75.2753 66.6418 75.138 68.5855 74.6036 70.4375C74.0691 72.2895 73.1496 74.0082 71.9049 75.4812L76.2472 74.9391C75.9451 72.0743 76.1925 69.1782 76.9761 66.4058C77.4258 64.8571 72.9129 65.4147 72.4787 66.9634H72.5407Z" fill="#05DDA9"/>
<path d="M83.9234 45.4236C83.3162 46.6812 82.9703 48.0485 82.9063 49.4431C82.8423 50.8378 83.0617 52.231 83.5512 53.5387C83.9234 54.5454 86.963 53.3529 87.5213 52.9967C89.801 51.448 92.8406 49.2488 92.5305 46.136C92.2203 43.0231 89.5994 42.2023 87.0095 42.6359C86.5133 42.7133 84.3732 43.1625 84.3732 43.8594C84.3732 44.5563 85.6758 44.3704 86.1721 44.2775C86.4047 44.2775 87.4283 45.5474 87.5679 45.8262C87.9857 46.5862 88.1436 47.4618 88.0176 48.3196C87.6299 50.3949 85.7224 51.8197 84.0785 52.9657L88.0486 52.4236C87.5615 51.1816 87.3376 49.8522 87.3909 48.5194C87.4443 47.1866 87.7739 45.8794 88.3587 44.6802C88.6689 44.0142 84.4662 44.324 83.9234 45.47V45.4236Z" fill="#05DDA9"/>
<path d="M66.135 2.55712C65.4595 5.43738 65.2294 8.40395 65.4527 11.3537C65.5302 12.5153 69.3298 10.9356 69.733 10.5948C70.8929 9.63933 71.8125 8.42587 72.4185 7.05163C73.0244 5.6774 73.2997 4.18061 73.2223 2.68105C73.1293 1.22528 72.9122 0.187649 71.3303 0.0172927C69.6733 -0.0981867 68.0279 0.367382 66.6778 1.33369C65.949 1.87573 66.135 2.20097 66.9415 2.35583C68.0659 2.4258 69.1824 2.12664 70.1207 1.50402L68.4923 2.32483L68.6164 2.83593C68.6164 3.25407 68.7404 3.71864 68.7559 4.15228C68.7769 5.05334 68.6565 5.95212 68.3992 6.81603C67.9139 8.41825 66.9642 9.84098 65.6698 10.9046L69.9656 10.1458C69.7448 7.34283 69.954 4.52263 70.5859 1.78278C70.8185 0.776128 66.4142 1.41109 66.1506 2.55712H66.135Z" fill="#05DDA9"/>
<path d="M28.6211 15.1009C27.3805 16.4482 25.6281 18.4615 26.8997 20.3664C28.1714 22.2713 30.3581 21.6209 31.9864 21.0169C36.3753 19.3908 36.1426 13.2734 33.9094 9.9592C33.2271 8.98352 29.9238 10.1141 29.4431 10.9659L27.5201 14.3111C27.1168 15.008 29.0709 14.7447 29.319 14.7137C30.0944 14.5743 31.5056 14.2646 31.9554 13.5057C32.5912 12.3907 33.2271 11.2756 33.8784 10.1605L29.4121 11.1672C30.1675 12.2085 30.6689 13.4117 30.8762 14.6809C31.0835 15.95 30.991 17.2499 30.6062 18.477C30.265 19.4991 29.4276 19.8554 31.0094 19.747C32.5912 19.6385 31.3971 19.5766 31.0094 18.477C30.5597 17.0367 31.7538 15.7049 32.5602 14.7292C33.2271 14.0168 31.9709 14.0013 31.5056 14.0323C30.4125 14.0489 29.3552 14.4244 28.4971 15.1009H28.6211Z" fill="#05DDA9"/>
<path d="M101.603 17.3639C100.455 19.2224 99.0904 22.01 99.6952 24.2401C100.3 26.4702 103.061 25.9592 104.642 25.2158C108.954 23.2025 109.295 17.1936 106.72 13.771C105.945 12.7643 101.618 14.2356 102.518 15.4281C103.481 16.6875 103.975 18.2428 103.913 19.8264C103.888 20.6672 103.709 21.4964 103.386 22.2733C103.218 22.6827 103.005 23.0723 102.75 23.4348C102.275 23.8065 102.275 23.9459 102.75 23.8529H104.813C102.828 23.2799 105.216 18.2002 105.774 17.302C106.72 15.7533 102.301 16.3573 101.649 17.4259L101.603 17.3639Z" fill="#05DDA9"/>
<path d="M102.223 65.3836C101.2 67.707 100.672 70.2174 100.672 72.7554C100.672 73.6072 102.874 73.251 103.185 73.1426C107.232 71.8262 110.644 68.7289 110.939 64.2531C111.086 63.2696 110.968 62.2647 110.598 61.3416C110.291 61.0475 109.919 60.8308 109.511 60.7096C109.104 60.5884 108.674 60.5661 108.256 60.6446C107.225 60.6127 106.207 60.8909 105.336 61.4432C104.465 61.9955 103.781 62.7964 103.371 63.742C102.952 65.1359 107.434 64.5164 107.853 63.1071L106.302 63.0296L106.41 63.5407C106.333 63.8969 106.519 64.5938 106.41 64.9965C106.376 65.8362 106.197 66.6638 105.883 67.4434C105.623 68.2416 105.202 68.9785 104.648 69.6094C104.093 70.2404 103.416 70.7522 102.657 71.1138L105.17 71.5165C105.216 69.1732 105.744 66.8645 106.721 64.7332C107.263 63.5252 102.859 63.9898 102.254 65.3527L102.223 65.3836Z" fill="#05DDA9"/>
<path d="M3.01683 92.4965C-0.224392 94.293 -1.06182 102.098 4.0559 101.247C9.17362 100.395 10.802 92.9457 9.94901 88.6093C9.65436 87.169 6.49068 88.1602 5.88586 88.8262C5.28104 89.4921 4.87783 89.9567 4.33504 90.5142C2.58261 92.4811 6.92494 92.4191 7.94848 91.2886L9.49931 89.6005L5.45163 89.8173C5.79835 91.475 5.77188 93.1889 5.37411 94.8351C5.1926 95.588 4.93271 96.3199 4.5987 97.0188C4.31955 97.5763 2.8928 98.9391 4.16447 98.7842L5.63772 98.9391C4.42808 98.3506 4.73827 94.4634 5.80834 93.8594C6.55274 93.4567 7.01798 92.6359 6.19605 92.0784C5.37411 91.5209 3.79224 92.0784 3.01683 92.4965Z" fill="#05DDA9"/>
<path d="M14.2604 117.71C12.8647 118.825 10.6935 120.575 11.1588 122.635C11.4366 123.489 12.0394 124.2 12.8372 124.614C13.635 125.028 14.5639 125.113 15.4235 124.849C18.0444 124.4 18.9284 122.821 19.7348 120.467C20.6889 117.611 21.42 114.685 21.9215 111.716C22.2161 110.168 18.122 111.484 17.6412 112.119C15.8587 114.331 14.6973 116.977 14.2759 119.785C14.0588 121.194 18.5407 120.389 18.7268 119.104C19.1208 116.5 20.1901 114.044 21.8284 111.98L17.5327 112.382C17.0435 115.222 16.349 118.022 15.4546 120.761C15.1708 121.383 14.9474 122.032 14.7877 122.697H16.4936C16.1549 122.486 15.9105 122.153 15.8112 121.767C15.315 120.219 16.8503 119.011 17.8583 118.205C18.6027 117.601 18.3546 117.121 17.5171 116.92C16.3874 116.788 15.2498 117.093 14.338 117.772L14.2604 117.71Z" fill="#05DDA9"/>
<path d="M50.4102 88.5871C49.6165 89.7357 49.0691 91.0357 48.8022 92.4055C48.5354 93.7753 48.5548 95.1854 48.8594 96.5474C49.1541 97.8483 51.8525 97.0584 52.5039 96.5474C54.5665 95.0916 57.358 93.1402 57.2804 90.3526C57.2616 89.7638 57.1136 89.1863 56.8469 88.6609C56.5802 88.1354 56.2013 87.6748 55.737 87.3115C55.2726 86.9482 54.7341 86.6911 54.1594 86.5583C53.5847 86.4255 52.9878 86.4202 52.4108 86.5428C51.6354 86.6203 49.976 87.1158 49.852 88.0915C49.7279 89.0672 51.1392 89.1291 51.7905 89.0517C51.7905 89.0517 52.4419 89.9964 52.5349 90.2287C52.789 90.7932 52.8383 91.4284 52.6745 92.0252C52.0966 93.4285 51.05 94.5886 49.7124 95.3084H53.3568C53.0743 94.178 53.0332 93.0008 53.2363 91.8535C53.4393 90.7061 53.882 89.6143 54.5354 88.6491C55.1092 87.7663 54.0237 87.3636 53.3103 87.3327C52.7556 87.2953 52.1998 87.3862 51.686 87.5984C51.1722 87.8106 50.7144 88.1384 50.3482 88.5561L50.4102 88.5871Z" fill="#05DDA9"/>
<path d="M87.1642 90.1981C85.0462 92.1596 83.5797 94.7211 82.9614 97.5389C82.5582 100.234 84.8844 101.349 87.2417 100.869C92.7006 99.7535 94.8562 92.8154 93.9257 88.0144C93.7551 87.1627 92.561 87.0697 91.9097 87.0852C89.4594 87.1781 86.5749 88.8972 87.0711 91.6538C87.4123 93.5587 91.9252 92.4437 91.5685 90.4459L91.4445 90.1361L89.4284 89.2069C89.7053 90.5458 89.6951 91.9281 89.3984 93.2628C89.1017 94.5975 88.5252 95.8543 87.707 96.9504C86.9626 97.9261 87.1177 97.8022 87.5674 96.7801C87.8465 96.1296 88.0016 95.4326 88.3118 94.7977C88.9672 93.4944 89.8316 92.3069 90.8707 91.2822C91.0296 91.1394 91.1461 90.9556 91.2072 90.751C91.2684 90.5465 91.272 90.329 91.2175 90.1226C91.163 89.9161 91.0526 89.7287 90.8984 89.5808C90.7442 89.4329 90.5521 89.3303 90.3433 89.2843C89.7851 89.1364 89.1978 89.1372 88.6399 89.2867C88.0821 89.4361 87.5733 89.729 87.1642 90.1361V90.1981Z" fill="#05DDA9"/>
</svg>
