<svg width="40" height="41" viewBox="0 0 40 41" fill="none" xmlns="http://www.w3.org/2000/svg">
<path d="M14.1083 19.0985C15.9967 17.2102 19.29 17.2102 21.1783 19.0985L22.3567 20.2768L24.7133 17.9202L23.535 16.7418C21.9633 15.1685 19.87 14.3002 17.6433 14.3002C15.4167 14.3002 13.3233 15.1685 11.7517 16.7418L8.215 20.2768C6.65549 21.8414 5.77979 23.9603 5.77979 26.1693C5.77979 28.3784 6.65549 30.4973 8.215 32.0618C8.98812 32.8361 9.90661 33.4499 10.9177 33.8681C11.9288 34.2862 13.0125 34.5005 14.1067 34.4985C15.2011 34.5008 16.2852 34.2867 17.2966 33.8685C18.308 33.4503 19.2267 32.8363 20 32.0618L21.1783 30.8835L18.8217 28.5268L17.6433 29.7052C16.7041 30.6402 15.4328 31.1651 14.1075 31.1651C12.7822 31.1651 11.5109 30.6402 10.5717 29.7052C9.63584 28.7664 9.11034 27.4949 9.11034 26.1693C9.11034 24.8438 9.63584 23.5723 10.5717 22.6335L14.1083 19.0985Z" fill="white"/>
<path d="M20 8.49188L18.8217 9.67022L21.1783 12.0269L22.3567 10.8486C23.2959 9.91354 24.5672 9.3886 25.8925 9.3886C27.2178 9.3886 28.4891 9.91354 29.4283 10.8486C30.3642 11.7873 30.8897 13.0588 30.8897 14.3844C30.8897 15.7099 30.3642 16.9814 29.4283 17.9202L25.8917 21.4552C24.0033 23.3436 20.71 23.3436 18.8217 21.4552L17.6433 20.2769L15.2867 22.6336L16.465 23.8119C18.0367 25.3852 20.13 26.2536 22.3567 26.2536C24.5833 26.2536 26.6767 25.3852 28.2483 23.8119L31.785 20.2769C33.3445 18.7124 34.2202 16.5934 34.2202 14.3844C34.2202 12.1754 33.3445 10.0564 31.785 8.49188C30.2209 6.93156 28.1018 6.0553 25.8925 6.0553C23.6832 6.0553 21.5641 6.93156 20 8.49188Z" fill="white"/>
</svg>
