<svg fill="none" height="64" viewBox="0 0 420 64" width="420" xmlns="http://www.w3.org/2000/svg"><path d="m28 0h-28v64h28z" fill="#29cd9c"/><path d="m50 0c-7.73 0-14 6.27-14 14v14h14c7.73 0 14-6.27 14-14v-14z" fill="#29cd9c"/><g fill="#000"><path d="m132.8 16v6.18h-3.45c-5.41 0-8.11 3.09-8.11 8.85v16.97h-6.54v-31.82h4.42l1.11 4.34c2.28-3.02 5.4-4.52 9.74-4.52z"/><path d="m167.27 32.16c0 .72-.06 1.43-.14 2.15h-25.83c.82 5.16 4.53 8.33 9.74 8.33 3.8 0 6.88-1.76 8.56-4.66h6.89c-2.53 6.72-8.34 10.8-15.45 10.8-9.3 0-16.35-7.18-16.35-16.69 0-9.52 7.03-16.69 16.35-16.69 9.75 0 16.23 7.5 16.23 16.76zm-16.23-10.85c-4.92 0-8.5 2.97-9.58 7.69h19.24c-1.16-4.84-4.81-7.69-9.66-7.69z"/><path d="m209.8 15.45c6.71 0 11.24 5.1 11.24 12.31v20.24h-6.54v-18.63c0-5.12-2.23-8.05-6.19-8.05-4.22 0-7.46 3.86-7.46 9.28v17.4h-6.39v-18.63c0-5.12-2.21-8.05-6.2-8.05-4.23 0-7.5 3.86-7.5 9.28v17.4h-6.54v-31.82h4.64l1.12 4.11c2.39-2.98 6.02-4.84 9.89-4.84 4.31 0 7.73 2.12 9.55 5.57 2.31-3.42 6.18-5.57 10.38-5.57z"/><path d="m244.59 48.77c-9.73 0-17.02-7.12-17.02-16.69 0-9.62 7.28-16.69 17.02-16.69 9.72 0 17.01 7.11 17.01 16.69 0 9.57-7.3 16.7-17.01 16.69zm10.35-16.68c0-6.09-4.33-10.44-10.36-10.44-6.02 0-10.36 4.35-10.36 10.44s4.33 10.44 10.36 10.44 10.36-4.35 10.36-10.44z"/><path d="m285.97 48h-4.86c-6.97 0-11.27-4.3-11.27-11.33v-14.89h-5.69v-1.27l11.07-11.76998h1.11v7.42998h9.47v5.6h-9.42v14.37c0 3.79 2.11 5.91 5.96 5.91h3.63z"/><path d="m323.65 16.16v31.82h-5.28l-.64-3.87c-2.88 2.92-6.9 4.66-11.54 4.66-9.48 0-16.57-7.16-16.57-16.7 0-9.56 7.09-16.67 16.57-16.67 4.69 0 8.75 1.77 11.64 4.74l.76-3.98zm-6.56 15.91c0-6-4.38-10.44-10.38-10.44s-10.42 4.48-10.42 10.44 4.43 10.44 10.42 10.44c6 0 10.38-4.44 10.38-10.44z"/><path d="m330.57 37.9h6.39c.17 3.37 2.99 5.12 6.83 5.12 3.51 0 6.21-1.49 6.21-4.15 0-3.02-3.42-3.71-7.31-4.37-5.3-.91-11.55-2.11-11.55-9.49 0-5.71 4.93-9.62 12.34-9.62 7.4 0 12.19 4.03 12.32 10.2h-6.2c-.13-3.03-2.43-4.65-6.27-4.65-3.62 0-5.85 1.54-5.85 3.86 0 2.81 3.25 3.36 7.08 4 5.38.9 11.91 1.94 11.91 9.78 0 6.18-5.15 10.19-12.91 10.19-7.73.01-12.82-4.27-12.99-10.87z"/><path d="m374.67 34.42h-3.96v13.58h-6.54v-43.22998h6.54v23.70998h4.01l8.59-12.31h7.75l-10.77 15.27 11.91 16.56h-8z"/><path d="m394.1 37.9h6.39c.17 3.37 2.99 5.12 6.83 5.12 3.51 0 6.21-1.49 6.21-4.15 0-3.02-3.42-3.71-7.31-4.37-5.3-.91-11.55-2.11-11.55-9.49 0-5.71 4.93-9.62 12.34-9.62 7.4 0 12.19 4.03 12.32 10.2h-6.2c-.13-3.03-2.43-4.65-6.27-4.65-3.62 0-5.85 1.54-5.85 3.86 0 2.81 3.25 3.36 7.08 4 5.38.9 11.91 1.94 11.91 9.78 0 6.18-5.15 10.19-12.91 10.19-7.74.01-12.82-4.27-12.99-10.87z"/></g></svg>