<svg width="48" height="48" viewBox="0 0 48 48" fill="none" xmlns="http://www.w3.org/2000/svg">
<g clip-path="url(#clip0_2_2110)">
<path d="M44.9481 15.7425C43.2136 13.4931 41.3908 11.5794 39.4892 10.0064C39.4265 9.94534 39.3586 9.88967 39.2859 9.84022C31.5167 3.53093 22.8604 3.23869 13.8195 7.4385C8.92018 8.22237 5.48056 10.6956 3.58962 14.7943C-0.609616 19.6556 -1.45718 24.6857 2.83784 29.6343C4.97563 33.4759 8.53735 34.1147 12.6381 32.3005C14.3164 35.3881 17.3959 37.1056 22.6992 35.9522C24.0314 37.6397 26.4458 37.8665 27.9251 37.8865L32.4158 42.8679C32.7021 43.1855 33.1096 43.3668 33.5372 43.3668H36.7001C37.674 43.3668 38.3956 42.4558 38.1686 41.5058L37.7587 39.7916C45.3288 38.2001 49.3699 31.413 46.0157 27.4735C49.1135 23.7313 48.4539 19.1972 44.9481 15.7425Z" fill="#FFF152"/>
<path d="M32.4156 42.8679C32.7019 43.1855 33.1094 43.3668 33.537 43.3668H36.6999C37.6738 43.3668 38.3954 42.4558 38.1684 41.5058L37.7585 39.7916C45.1224 38.2435 49.2081 31.7373 46.2212 27.7327C44.226 26.8833 42.1166 25.6652 41.0585 24.0467C38.7159 20.4635 37.9662 25.5683 35.9046 27.0677C33.8431 28.567 26.1591 31.4719 15.5702 24.8269C4.98136 18.1819 7.79252 27.8174 5.16877 25.97C3.72077 24.9506 2.24937 26.1074 1.22119 27.3489C1.64847 28.1221 2.18699 28.8845 2.83772 29.6343C4.97551 33.4759 8.53723 34.1146 12.638 32.3004C14.3163 35.388 17.3958 37.1055 22.6991 35.9521C24.0313 37.6396 26.4457 37.8664 27.925 37.8864L32.4156 42.8679Z" fill="#FFF152"/>
<path d="M44.9481 15.7425C43.2136 13.4931 41.3908 11.5794 39.4892 10.0064C39.4264 9.94534 39.3586 9.88967 39.2859 9.84022C31.5167 3.53094 22.8604 3.23869 13.8195 7.4385C10.6004 7.95344 8.01165 9.19789 6.07816 11.1534C6.83164 11.4378 7.92606 11.7192 9.47937 11.9809C17.8192 13.3866 18.7564 6.45222 22.8795 10.2942C27.0025 14.1362 29.6263 17.1347 34.218 17.6971C38.8097 18.2594 35.9047 12.4073 40.6837 16.6452C42.6767 18.4124 45.044 18.8261 47.0594 18.5482C46.5532 17.5699 45.8463 16.6277 44.9481 15.7425Z" fill="#FFF152"/>
<path d="M44.9481 15.7425C43.4905 13.7328 40.6858 11.0385 39.2859 9.84022C31.5167 3.53093 22.8604 3.23869 13.8195 7.4385C8.92018 8.22237 5.48056 10.6956 3.58962 14.7943C-0.609616 19.6556 -1.45718 24.6857 2.83784 29.6343C4.97563 33.4759 8.53735 34.1147 12.6381 32.3005C14.3164 35.3881 17.3959 37.1056 22.6992 35.9522C24.0314 37.6397 26.4458 37.8665 27.9251 37.8865L32.4158 42.8679C32.7021 43.1855 33.1096 43.3668 33.5372 43.3668H36.7001C37.674 43.3668 38.3956 42.4558 38.1686 41.5058L37.7587 39.7916C45.3288 38.2001 49.3699 31.413 46.0157 27.4735C49.1135 23.7313 48.4539 19.1972 44.9481 15.7425ZM42.8134 26.4496C42.0538 27.1246 42.1637 28.349 43.0417 28.874C46.272 30.8051 42.269 36.4119 35.7626 37.0466C34.8505 37.1356 34.2282 38.0106 34.4408 38.9005L34.7866 40.3471H34.2088L29.7166 35.364C29.4301 35.0461 29.0226 34.8651 28.5952 34.8651C27.3846 34.8651 25.2727 34.876 24.8864 33.7288C24.6309 32.9698 23.8272 32.5429 23.055 32.7548C19.8885 33.626 16.8952 33.7793 15.3133 30.903C17.7019 29.3114 18.7216 26.9135 17.8641 24.6812C17.565 23.9028 16.6918 23.514 15.9132 23.8133C15.1348 24.1123 14.7462 24.9857 15.0453 25.764C15.5468 27.0697 13.9634 28.2336 12.9789 28.7732C12.7612 28.8925 9.46871 30.7937 7.61769 30.1277C6.75908 29.8187 5.64051 28.2981 5.21238 27.7624C3.2284 25.526 2.42566 23.2036 3.51347 20.4445C4.55703 23.0816 6.9246 24.6601 9.65744 24.6601C10.4912 24.6601 11.1672 23.9842 11.1672 23.1503C11.1672 22.3164 10.4912 21.6405 9.65744 21.6405C6.72143 21.6405 5.40394 18.5459 6.27491 16.1849C7.73621 12.9178 10.3866 11.0277 14.3728 10.409C15.7986 10.4448 16.1711 11.1599 16.7223 11.9504C17.1963 12.6312 18.1365 12.8055 18.824 12.3268C19.5084 11.8503 19.6769 10.9094 19.2004 10.2251C18.9504 9.86608 18.6687 9.41012 18.191 8.92622C21.8288 7.68564 25.2551 7.35036 28.4913 7.92636C26.4579 9.98507 25.5985 12.7763 25.9923 16.1536C26.0819 16.9224 26.7344 17.4886 27.4901 17.4886C28.397 17.4886 29.0961 16.6993 28.9916 15.8038C28.6215 12.6305 29.5928 10.4372 32.0399 8.95283C33.695 9.62498 35.2981 10.5586 36.8525 11.7532C36.6719 12.7029 36.1804 13.3431 35.3132 13.7828C34.5695 14.1599 34.2724 15.0685 34.6494 15.8122C35.0284 16.5596 35.9386 16.8514 36.6788 16.476C37.8711 15.8714 38.7515 14.9949 39.2974 13.8864C40.4307 14.9974 41.5373 16.2571 42.6186 17.6665C42.9141 18.0519 45.0334 19.7768 44.9774 22.3658C44.9462 23.807 44.1978 25.219 42.8134 26.4496Z" fill="#24315E"/>
<path d="M33.8417 26.2383C35.0089 23.092 34.5406 19.5556 31.6272 18.0097C30.8905 17.6188 29.9766 17.8992 29.5859 18.6358C29.195 19.3724 29.4754 20.2863 30.212 20.6772C31.6439 21.437 31.5842 23.4252 31.078 24.9895C27.7809 24.0229 24.8577 24.9268 23.5362 27.3673C23.1391 28.1006 23.4117 29.0168 24.145 29.4138C24.8783 29.8105 25.7945 29.5383 26.1916 28.805C27.8232 25.791 34.9887 29.1475 34.4595 32.1214C34.2953 33.0435 35.0033 33.8961 35.9477 33.8961C36.6656 33.8961 37.3022 33.3821 37.4324 32.6506C37.8938 30.0582 36.1811 27.7156 33.8417 26.2383Z" fill="#24315E"/>
<path d="M25.007 21.6176C25.7662 21.2728 26.1021 20.3778 25.7574 19.6186C25.4127 18.8594 24.5178 18.5234 23.7584 18.8682C23.1265 19.1552 22.3552 18.5693 21.8072 17.7603C22.5719 16.6905 22.812 15.4369 22.4202 14.2013C22.1681 13.4064 21.3196 12.9666 20.5246 13.2184C19.7298 13.4705 19.2898 14.3191 19.5418 15.1139C19.8432 16.0644 18.3415 16.8536 18.1694 16.9404C16.8622 17.5997 15.4846 17.5393 15.1262 17.0449C14.6369 16.3697 13.6929 16.2193 13.0177 16.7085C12.3425 17.1979 12.192 18.1419 12.6814 18.817C14.159 20.8556 17.1972 20.7826 19.4604 19.6701C20.8325 21.5443 22.9458 22.5534 25.007 21.6176Z" fill="#24315E"/>
<path d="M40.5388 20.5829L38.1497 21.0477C37.3312 21.207 36.7967 21.9995 36.9561 22.818C37.1158 23.639 37.9106 24.1706 38.7264 24.0116L41.1155 23.5468C41.934 23.3875 42.4685 22.595 42.3091 21.7765C42.1498 20.9579 41.3569 20.4233 40.5388 20.5829Z" fill="#24315E"/>
</g>
<defs>
<clipPath id="clip0_2_2110">
<rect width="48" height="48" fill="white" transform="translate(0.000244141)"/>
</clipPath>
</defs>
</svg>
