<svg width="80" height="86" viewBox="0 0 80 86" fill="none" xmlns="http://www.w3.org/2000/svg">
<path d="M21.4689 84.5591C21.0282 75.8907 21.1163 55.7329 24.9951 44.4493C29.8435 30.3447 44.8295 18.8847 49.678 38.7193C53.5567 54.5869 54.8202 75.8907 54.9672 84.5591" stroke="white" stroke-width="2"/>
<path d="M66.4275 84.5598C66.2806 73.9814 65.2815 49.2102 62.4606 34.7531C58.9345 16.6816 43.0668 8.30701 28.9623 18.8854C14.8577 29.4638 11.7724 58.5547 13.5354 84.5598" stroke="white" stroke-width="2"/>
<path d="M78.328 84.9998C79.2096 73.6868 79.3859 46.9175 73.0388 30.3447C65.105 9.62861 54.5266 -0.949801 36.0144 2.57634C17.5021 6.10248 4.71987 21.9699 2.51603 47.0936C0.752965 67.1926 0.899887 80.739 1.19373 84.9998" stroke="white" stroke-width="2"/>
</svg>
