<svg width="48" height="48" viewBox="0 0 48 48" fill="none" xmlns="http://www.w3.org/2000/svg">
<path d="M30.6721 4.13379L5.67017 14.4938V45.2973L43.3804 44.3303V18.0852H31.7772L30.6721 4.13379Z" fill="#7CAAFF"/>
<path d="M45 43.5001V19.7446C45 17.9551 43.545 16.5001 41.7555 16.5001H33V5.60412C33 5.47512 32.9715 3.85362 31.5615 2.90862C30.1515 1.96512 28.641 2.55612 28.521 2.60412L6.5085 11.6686C5.289 12.1711 4.5 13.3471 4.5 14.6686V43.5001H3C2.172 43.5001 1.5 44.1721 1.5 45.0001C1.5 45.8281 2.172 46.5001 3 46.5001H6H31.5H43.5H45C45.828 46.5001 46.5 45.8281 46.5 45.0001C46.5 44.1721 45.828 43.5001 45 43.5001ZM7.5 14.6686C7.5 14.5696 7.56 14.4811 7.6515 14.4436L29.664 5.38062C29.7465 5.34762 29.8215 5.35512 29.892 5.40312C29.964 5.44962 30 5.51712 30 5.60412V18.0001V43.5001H7.5V14.6686ZM33 43.5001V19.5001H41.7555C41.8905 19.5001 42 19.6096 42 19.7446V43.5001H33Z" fill="#24315E"/>
<path d="M22.5 36.0002H15C14.172 36.0002 13.5 36.6722 13.5 37.5002C13.5 38.3282 14.172 39.0002 15 39.0002H22.5C23.328 39.0002 24 38.3282 24 37.5002C24 36.6722 23.328 36.0002 22.5 36.0002Z" fill="#24315E"/>
<path d="M22.5 30.0002H15C14.172 30.0002 13.5 30.6722 13.5 31.5002C13.5 32.3282 14.172 33.0002 15 33.0002H22.5C23.328 33.0002 24 32.3282 24 31.5002C24 30.6722 23.328 30.0002 22.5 30.0002Z" fill="#24315E"/>
<path d="M22.5 24.0002H15C14.172 24.0002 13.5 24.6722 13.5 25.5002C13.5 26.3282 14.172 27.0002 15 27.0002H22.5C23.328 27.0002 24 26.3282 24 25.5002C24 24.6722 23.328 24.0002 22.5 24.0002Z" fill="#24315E"/>
<path d="M22.5 18.0002H15C14.172 18.0002 13.5 18.6722 13.5 19.5002C13.5 20.3282 14.172 21.0002 15 21.0002H22.5C23.328 21.0002 24 20.3282 24 19.5002C24 18.6722 23.328 18.0002 22.5 18.0002Z" fill="#24315E"/>
</svg>
