<svg width="48" height="48" viewBox="0 0 48 48" fill="none" xmlns="http://www.w3.org/2000/svg">
<g clip-path="url(#clip0_2_2072)">
<path d="M32.6085 15.0798C23.4911 6.53219 15.0069 14.32 13.1708 17.2958C12.4532 18.6465 10.9927 22.4623 10.8914 26.9197C10.7901 31.3771 16.041 34.9397 18.6792 36.1638L19.7555 41.3556L29.0629 40.9124C29.3584 40.2793 30.0886 38.4431 30.6458 36.1638C37.9903 30.0855 37.8004 19.8918 32.6085 15.0798Z" fill="#FEACFF"/>
<path d="M23.9998 9.44678C15.8627 9.44678 9.24231 16.0667 9.24231 24.2043C9.24231 29.662 12.2576 34.6428 17.0041 37.1612V42.0766C17.0041 42.9227 17.6898 43.6084 18.5359 43.6084H29.4636C30.3097 43.6084 30.9955 42.9231 30.9955 42.0766V37.1989C35.7414 34.6151 38.7567 29.6175 38.7567 24.2043C38.7567 16.0672 32.1368 9.44678 23.9998 9.44678ZM28.8227 34.8638C28.2799 35.114 27.9316 35.6573 27.9316 36.2554V40.5447H20.0679V36.2043C20.0679 35.5992 19.711 35.0502 19.158 34.8046C14.9957 32.9545 12.3062 28.7933 12.3062 24.2043C12.3062 17.7564 17.552 12.5106 23.9999 12.5106C30.4477 12.5106 35.693 17.7564 35.693 24.2043C35.6929 28.757 32.9962 32.9413 28.8227 34.8638Z" fill="#24315E"/>
<path d="M28.4423 44.936H19.5572C18.7111 44.936 18.0253 45.6218 18.0253 46.4679C18.0253 47.314 18.7111 47.9998 19.5572 47.9998H28.4423C29.2884 47.9998 29.9741 47.314 29.9741 46.4679C29.9742 45.6218 29.2885 44.936 28.4423 44.936Z" fill="#24315E"/>
<path d="M25.5316 0H22.4678V6.38297H25.5316V0Z" fill="#24315E"/>
<path d="M6.5358 22.3149H0.152832V25.3788H6.5358V22.3149Z" fill="#24315E"/>
<path d="M47.8466 22.3149H41.4636V25.3788H47.8466V22.3149Z" fill="#24315E"/>
<path d="M8.22591 5.9065L6.07172 8.08521L10.6165 12.5789L12.7707 10.4002L8.22591 5.9065Z" fill="#24315E"/>
<path d="M39.7736 5.90795L35.2288 10.4016L37.3829 12.5803L41.9277 8.08665L39.7736 5.90795Z" fill="#24315E"/>
</g>
<defs>
<clipPath id="clip0_2_2072">
<rect width="48" height="48" fill="white" transform="translate(-0.000244141)"/>
</clipPath>
</defs>
</svg>
